<svg width="1920" height="552" viewBox="0 0 1920 552" fill="none" xmlns="http://www.w3.org/2000/svg">
<rect width="1920" height="552" fill="#282A36"/>
<rect x="636" y="123" width="18" height="66" rx="2" fill="#898B9C"/>
<rect x="590" y="173" width="18" height="38" rx="2" fill="#898B9C"/>
<rect x="636" y="223" width="18" height="22" rx="2" fill="#898B9C"/>
<rect x="590" y="245" width="18" height="92" rx="2" fill="#898B9C"/>
<rect x="636" y="279" width="18" height="92" rx="2" fill="#898B9C"/>
<rect x="682" y="301" width="18" height="40" rx="2" fill="#898B9C"/>
<rect x="682" y="374" width="18" height="55" rx="2" fill="#898B9C"/>
<rect x="590" y="371" width="18" height="23" rx="2" fill="#898B9C"/>
<rect x="682" y="204" width="18" height="60" rx="2" fill="#AF31C4"/>
<path d="M852.469 251.141H831.562V308H817.5V251.141H796.875V239.75H852.469V251.141ZM873.938 308H860.344V257.281H873.938V308ZM859.547 244.156C859.547 242.125 860.219 240.453 861.562 239.141C862.938 237.828 864.797 237.172 867.141 237.172C869.453 237.172 871.297 237.828 872.672 239.141C874.047 240.453 874.734 242.125 874.734 244.156C874.734 246.219 874.031 247.906 872.625 249.219C871.25 250.531 869.422 251.188 867.141 251.188C864.859 251.188 863.016 250.531 861.609 249.219C860.234 247.906 859.547 246.219 859.547 244.156ZM897.609 257.281L898.031 263.141C901.656 258.609 906.516 256.344 912.609 256.344C917.984 256.344 921.984 257.922 924.609 261.078C927.234 264.234 928.578 268.953 928.641 275.234V308H915.094V275.562C915.094 272.688 914.469 270.609 913.219 269.328C911.969 268.016 909.891 267.359 906.984 267.359C903.172 267.359 900.312 268.984 898.406 272.234V308H884.859V257.281H897.609ZM957.891 288.828L967.266 257.281H981.797L961.406 315.875L960.281 318.547C957.25 325.172 952.25 328.484 945.281 328.484C943.312 328.484 941.312 328.188 939.281 327.594V317.328L941.344 317.375C943.906 317.375 945.812 316.984 947.062 316.203C948.344 315.422 949.344 314.125 950.062 312.312L951.656 308.141L933.891 257.281H948.469L957.891 288.828ZM1009.41 280.625L1002.09 288.5V308H988.031V239.75H1002.09V270.688L1008.28 262.203L1025.67 239.75H1042.97L1018.73 270.078L1043.67 308H1026.94L1009.41 280.625ZM1070.2 308.938C1062.77 308.938 1056.7 306.656 1052.02 302.094C1047.36 297.531 1045.03 291.453 1045.03 283.859V282.547C1045.03 277.453 1046.02 272.906 1047.98 268.906C1049.95 264.875 1052.73 261.781 1056.33 259.625C1059.95 257.438 1064.08 256.344 1068.7 256.344C1075.64 256.344 1081.09 258.531 1085.06 262.906C1089.06 267.281 1091.06 273.484 1091.06 281.516V287.047H1058.77C1059.2 290.359 1060.52 293.016 1062.7 295.016C1064.92 297.016 1067.72 298.016 1071.09 298.016C1076.31 298.016 1080.39 296.125 1083.33 292.344L1089.98 299.797C1087.95 302.672 1085.2 304.922 1081.73 306.547C1078.27 308.141 1074.42 308.938 1070.2 308.938ZM1068.66 267.312C1065.97 267.312 1063.78 268.219 1062.09 270.031C1060.44 271.844 1059.38 274.438 1058.91 277.812H1077.75V276.734C1077.69 273.734 1076.88 271.422 1075.31 269.797C1073.75 268.141 1071.53 267.312 1068.66 267.312ZM1127.3 269.984C1125.45 269.734 1123.83 269.609 1122.42 269.609C1117.3 269.609 1113.94 271.344 1112.34 274.812V308H1098.8V257.281H1111.59L1111.97 263.328C1114.69 258.672 1118.45 256.344 1123.27 256.344C1124.77 256.344 1126.17 256.547 1127.48 256.953L1127.3 269.984ZM1146.33 257.281L1146.75 263.141C1150.38 258.609 1155.23 256.344 1161.33 256.344C1166.7 256.344 1170.7 257.922 1173.33 261.078C1175.95 264.234 1177.3 268.953 1177.36 275.234V308H1163.81V275.562C1163.81 272.688 1163.19 270.609 1161.94 269.328C1160.69 268.016 1158.61 267.359 1155.7 267.359C1151.89 267.359 1149.03 268.984 1147.12 272.234V308H1133.58V257.281H1146.33ZM1211.02 308.938C1203.58 308.938 1197.52 306.656 1192.83 302.094C1188.17 297.531 1185.84 291.453 1185.84 283.859V282.547C1185.84 277.453 1186.83 272.906 1188.8 268.906C1190.77 264.875 1193.55 261.781 1197.14 259.625C1200.77 257.438 1204.89 256.344 1209.52 256.344C1216.45 256.344 1221.91 258.531 1225.88 262.906C1229.88 267.281 1231.88 273.484 1231.88 281.516V287.047H1199.58C1200.02 290.359 1201.33 293.016 1203.52 295.016C1205.73 297.016 1208.53 298.016 1211.91 298.016C1217.12 298.016 1221.2 296.125 1224.14 292.344L1230.8 299.797C1228.77 302.672 1226.02 304.922 1222.55 306.547C1219.08 308.141 1215.23 308.938 1211.02 308.938ZM1209.47 267.312C1206.78 267.312 1204.59 268.219 1202.91 270.031C1201.25 271.844 1200.19 274.438 1199.72 277.812H1218.56V276.734C1218.5 273.734 1217.69 271.422 1216.12 269.797C1214.56 268.141 1212.34 267.312 1209.47 267.312ZM1253.91 308H1240.31V236H1253.91V308Z" fill="white"/>
</svg>
